<svg width="99" height="16" viewBox="0 0 99 16" fill="none" xmlns="http://www.w3.org/2000/svg">
<path d="M0 1.83086V9.32681C0 12.8709 3.18228 15.7447 7.10808 15.7447C11.0339 15.7447 14.2162 12.8716 14.2162 9.32681V2.65989C14.2162 1.49132 13.1672 0.543945 11.8728 0.543945C11.5122 0.543945 11.1572 0.618918 10.8338 0.763285L7.08764 2.43621C6.28835 2.7931 5.78275 3.52795 5.78275 4.33282V9.40922C5.78275 10.1199 6.42094 10.6961 7.20846 10.6961C7.99597 10.6961 8.63416 10.1199 8.63416 9.40922V4.74361C8.63416 4.52365 8.76552 4.32104 8.97742 4.21323L10.3195 3.53043C10.7693 3.3018 11.3251 3.59487 11.3251 4.06081V9.37328C11.3251 11.4861 9.42849 13.1987 7.08826 13.1987C4.74864 13.1987 2.85141 11.4861 2.85141 9.37328V1.83086C2.85141 1.12018 2.21322 0.543945 1.42571 0.543945C0.63819 0.543945 0 1.12018 0 1.83086Z" fill="#6E073D"/>
<path d="M18.5672 0H25.6827C28.0409 0 29.9517 1.72559 29.9517 3.85455C29.9517 5.9835 28.0403 7.7091 25.6827 7.7091H25.5544L28.9635 13.6858C29.4145 14.477 28.7788 15.4182 27.793 15.4182C27.2893 15.4182 26.8302 15.1586 26.6096 14.7496L23.0196 8.09077C22.8938 7.85718 22.6311 7.70848 22.343 7.70848H20.6453C20.2296 7.70848 19.8925 8.0127 19.8925 8.38818V14.1808C19.8925 14.8643 19.2791 15.4182 18.5219 15.4182C17.7648 15.4182 17.1514 14.8643 17.1514 14.1808V6.08698C17.1514 5.60864 17.5808 5.22139 18.1099 5.22139H25.6746C26.4894 5.22139 27.1505 4.62472 27.1505 3.88863C27.1505 3.15254 26.49 2.55586 25.6746 2.55586H18.5672C17.7852 2.55586 17.1514 1.98335 17.1514 1.27762C17.1514 0.572513 17.7852 0 18.5672 0Z" fill="#6E073D"/>
<path d="M32.5336 0H40.1535C42.9733 0 45.259 2.0639 45.259 4.60985C45.259 5.72327 44.8129 6.7989 44.0031 7.63784L43.9343 7.70972C44.7862 8.53627 45.2596 9.62367 45.2596 10.7532V10.9509C45.2596 13.4187 43.0439 15.4194 40.3102 15.4194H32.5943C31.7876 15.4194 31.1333 14.829 31.1333 14.1003C31.1333 13.3716 31.7876 12.7812 32.5943 12.7812H40.2297C41.4608 12.7812 42.4584 11.8803 42.4584 10.7687C42.4584 9.65713 41.4608 8.75623 40.2297 8.75623H32.5943C31.7876 8.75623 31.1333 8.16574 31.1333 7.43709C31.1333 6.70844 31.7876 6.11796 32.5943 6.11796H40.4404C41.5383 6.11796 42.428 5.31433 42.428 4.32297C42.428 3.3316 41.5383 2.52798 40.4404 2.52798H32.5342C31.761 2.52798 31.1339 1.96166 31.1339 1.26337C31.1333 0.566318 31.7603 0 32.5336 0Z" fill="#6E073D"/>
<path d="M57.1088 12.8623H55.3522C52.3911 12.8623 49.9908 10.695 49.9908 8.022V7.333C49.9908 4.66003 52.3911 2.49266 55.3522 2.49266H60.2719C60.8264 2.49266 61.2756 2.8985 61.2756 3.39914V14.1133C61.2756 14.8339 61.9231 15.4188 62.7212 15.4188C63.5198 15.4188 64.1667 14.8345 64.1667 14.1133V1.50006C64.1667 0.671651 63.4226 0 62.5049 0H54.9451C50.6116 0 47.0991 3.17175 47.0991 7.08392V8.3349C47.0991 12.2471 50.6116 15.4188 54.9451 15.4188H57.1088C57.8827 15.4188 58.5134 14.8575 58.524 14.1592C58.5351 13.4454 57.8982 12.8623 57.1088 12.8623Z" fill="#6E073D"/>
<path d="M55.931 10.6735C57.7894 10.6735 59.296 9.31336 59.296 7.63557C59.296 5.95778 57.7894 4.59766 55.931 4.59766C54.0725 4.59766 52.5659 5.95778 52.5659 7.63557C52.5659 9.31336 54.0725 10.6735 55.931 10.6735Z" fill="#6E073D"/>
<path d="M55.066 7.37004C55.3295 7.37004 55.5431 7.17724 55.5431 6.93941C55.5431 6.70159 55.3295 6.50879 55.066 6.50879C54.8025 6.50879 54.5889 6.70159 54.5889 6.93941C54.5889 7.17724 54.8025 7.37004 55.066 7.37004Z" fill="white" stroke="white" stroke-width="0.0619603" stroke-miterlimit="10"/>
<path d="M56.73 7.36613C56.9935 7.36613 57.2071 7.17333 57.2071 6.93551C57.2071 6.69768 56.9935 6.50488 56.73 6.50488C56.4665 6.50488 56.2529 6.69768 56.2529 6.93551C56.2529 7.17333 56.4665 7.36613 56.73 7.36613Z" fill="white" stroke="white" stroke-width="0.0619603" stroke-miterlimit="10"/>
<path d="M56.7515 8.69718C57.015 8.69718 57.2286 8.50439 57.2286 8.26656C57.2286 8.02873 57.015 7.83594 56.7515 7.83594C56.488 7.83594 56.2744 8.02873 56.2744 8.26656C56.2744 8.50439 56.488 8.69718 56.7515 8.69718Z" fill="white" stroke="white" stroke-width="0.0619603" stroke-miterlimit="10"/>
<path d="M55.105 8.71672C55.3685 8.71672 55.5821 8.52392 55.5821 8.28609C55.5821 8.04827 55.3685 7.85547 55.105 7.85547C54.8415 7.85547 54.6279 8.04827 54.6279 8.28609C54.6279 8.52392 54.8415 8.71672 55.105 8.71672Z" fill="white" stroke="white" stroke-width="0.0619603" stroke-miterlimit="10"/>
<path d="M84.5161 14.7629V1.85531C84.5161 1.15206 85.1475 0.582031 85.9269 0.582031H90.5653C95.0097 0.582031 98.6121 3.83495 98.6121 7.84687V14.7084C98.6121 15.4215 97.9714 16.0002 97.1814 16.0002C96.3914 16.0002 95.7508 15.4221 95.7508 14.7084V8.16845C95.7508 5.39015 93.2562 3.13789 90.1787 3.13789H88.432C87.7833 3.13789 87.2572 3.61251 87.2572 4.19865V14.7629C87.2572 15.4463 86.6438 16.0002 85.8867 16.0002C85.1295 16.0002 84.5161 15.4463 84.5161 14.7629Z" fill="#6E073D"/>
<path d="M75.3481 13.2969H73.5915C70.6304 13.2969 68.2301 11.1295 68.2301 8.45657V7.76757C68.2301 5.0946 70.6304 2.92723 73.5915 2.92723H78.5111C79.0657 2.92723 79.5149 3.33307 79.5149 3.83371V14.5479C79.5149 15.2685 80.1624 15.8534 80.9604 15.8534C81.7591 15.8534 82.406 15.2691 82.406 14.5479V1.93463C82.406 1.10622 81.6618 0.43457 80.7442 0.43457H73.1844C68.8509 0.43457 65.3384 3.60632 65.3384 7.51849V8.76947C65.3384 12.6816 68.8509 15.8534 73.1844 15.8534H75.3481C76.1219 15.8534 76.7527 15.292 76.7632 14.5937C76.7744 13.8806 76.1374 13.2969 75.3481 13.2969Z" fill="#6E073D"/>
<path d="M74.1702 11.1081C76.0287 11.1081 77.5353 9.74793 77.5353 8.07014C77.5353 6.39235 76.0287 5.03223 74.1702 5.03223C72.3118 5.03223 70.8052 6.39235 70.8052 8.07014C70.8052 9.74793 72.3118 11.1081 74.1702 11.1081Z" fill="#6E073D"/>
<path d="M73.3052 7.80461C73.5687 7.80461 73.7823 7.61181 73.7823 7.37398C73.7823 7.13616 73.5687 6.94336 73.3052 6.94336C73.0417 6.94336 72.8281 7.13616 72.8281 7.37398C72.8281 7.61181 73.0417 7.80461 73.3052 7.80461Z" fill="white" stroke="white" stroke-width="0.0619603" stroke-miterlimit="10"/>
<path d="M74.9693 7.80168C75.2328 7.80168 75.4464 7.60888 75.4464 7.37105C75.4464 7.13323 75.2328 6.94043 74.9693 6.94043C74.7058 6.94043 74.4922 7.13323 74.4922 7.37105C74.4922 7.60888 74.7058 7.80168 74.9693 7.80168Z" fill="white" stroke="white" stroke-width="0.0619603" stroke-miterlimit="10"/>
<path d="M74.9908 9.13176C75.2543 9.13176 75.4679 8.93896 75.4679 8.70113C75.4679 8.46331 75.2543 8.27051 74.9908 8.27051C74.7273 8.27051 74.5137 8.46331 74.5137 8.70113C74.5137 8.93896 74.7273 9.13176 74.9908 9.13176Z" fill="white" stroke="white" stroke-width="0.0619603" stroke-miterlimit="10"/>
<path d="M73.3443 9.15226C73.6078 9.15226 73.8214 8.95947 73.8214 8.72164C73.8214 8.48381 73.6078 8.29102 73.3443 8.29102C73.0808 8.29102 72.8672 8.48381 72.8672 8.72164C72.8672 8.95947 73.0808 9.15226 73.3443 9.15226Z" fill="white" stroke="white" stroke-width="0.0619603" stroke-miterlimit="10"/>
</svg>
